<svg width="734" height="640" viewBox="0 0 734 640" fill="none" xmlns="http://www.w3.org/2000/svg" xmlns:xlink="http://www.w3.org/1999/xlink">
<rect width="734" height="640" fill="url(#pattern0)"/>
<defs>
<pattern id="pattern0" patternContentUnits="objectBoundingBox" width="1" height="1">
<use xlink:href="#image0" transform="translate(-0.00408719) scale(0.0013624 0.0015625)"/>
</pattern>

</defs>
<path d="M223 531.7L443.8 539.7L513 526V547.7L444.5 567.4L223 556.4V531.7Z" fill="#3595F6" fill-opacity="0.75"/>
<path d="M224 530.7V505.7L444.3 509L514 505.7V525.7L444.7 538.7L224 530.7Z" fill="#3595F6" fill-opacity="0.75"/>
<path d="M224 504.7V479.7H445H514V502.7L446 509.7L224 504.7Z" fill="#3595F6" fill-opacity="0.75"/>
<path d="M224 480.7V455.7L445.3 452L513 458.7V480.7H445" fill="#3595F6" fill-opacity="0.75"/>
<path d="M224 454.7V428.7L445.5 425.4L514 436.4V457.7L445 451L224 454.7Z" fill="#3595F6" fill-opacity="0.75"/>
<path d="M223 427.7V404L444 391.7L515 414.7V436L444 423.7L223 427.7Z" fill="#3595F6" fill-opacity="0.75"/>
<path d="M223 405.7V380.7L445.2 364.4L515 393V413.7L444.7 392L223 405.7Z" fill="#3595F6" fill-opacity="0.75"/>
<path d="M223 380.7V355.7L445.5 335.4L515 372V392.7L443 364L223 380.7Z" fill="#3595F6" fill-opacity="0.75"/>
<path d="M223 354.7V330.7L446 306L515 350V371.7L445.7 333.7L223 354.7Z" fill="#3595F6" fill-opacity="0.75"/>
<path d="M223 329.7V305.7L445.5 277L515 328V348.7L444.7 306.4L223 329.7Z" fill="#3595F6" fill-opacity="0.75"/>
<path d="M222 305.7V281.7L444.3 248.7L515 308V327.7L445 277L222 305.7Z" fill="#3595F6" fill-opacity="0.75"/>
<path d="M223 280.7V256.7L444.2 221.7L514 285.7V306.7L445.3 248.4L223 280.7Z" fill="#3595F6" fill-opacity="0.75"/>
<path d="M223 256.7V231.7L445.3 193.7L514 264V284.7L445 220.7L223 256.7Z" fill="#3595F6" fill-opacity="0.75"/>
<path d="M223 230.7V205.7L443.8 162L514 241V263.7L445 190.4L223 230.7Z" fill="#3595F6" fill-opacity="0.75"/>
<path d="M224 206.7V181.7L444 133.7L514 218.7V241.7L443.3 162.4L224 206.7Z" fill="#3595F6" fill-opacity="0.75"/>
<path d="M223 181.7V156.7L442.8 104.7L514 197V219.7L444.3 133.4L223 181.7Z" fill="#3595F6" fill-opacity="0.75"/>
<path d="M223 156.7V130.7L445 74L514 175.7V196.7L444.7 105L223 156.7Z" fill="#3595F6" fill-opacity="0.75"/>
</svg>
